# xmcd
#
# Track frame offsets:
#	182
#	30302
#	45187
#	59510
#	74772
#	92380
#	104002
#	120007
#	134002
#	154125
#	166427
#	178342
#	197887
#	210132
#	222060
#
# Disc length: 3138
#
# Revision: 3
# Processed by: cddbd v1.5.1PL0 Copyright (c) Steve Scherf et al.
# Submitted via: CDex 1.51
# Normalized: r2:DSETVAR1
#
DISCID=cf0c400f
DTITLE=Various Artist - Les Stars du Jazz 2 [CD 2)
DYEAR=1997
DGENRE=Jazz
TTITLE0=Herbie Hancock - Round midnight
TTITLE1=Cab Calloway - Minnie the moocher
TTITLE2=Supersax and LA Voices - April in Paris
TTITLE3=Duke Ellington - Singin in the rain
TTITLE4=Jay Jay Johnson - Laura
TTITLE5=Jackie Cain and Roy Kral - Cheek to cheek
TTITLE6=Woody Herman - Somewhere
TTITLE7=Dave Brubeck - The trolley song
TTITLE8=George Benson - The shadow of your smile
TTITLE9=Betty Carter - The way you look tonight
TTITLE10=Kai Winding - Whistle while you work
TTITLE11=Aretha Franklin - People
TTITLE12=Ahmad Jamal - Autumn leaves
TTITLE13=The Hi-Lo's - Stormy weather
TTITLE14=Duke Ellington - Who's afraid of the big bad wolf ?
EXTD=YEAR: 1997
EXTT0=H. Hancock
EXTT1=Cab Calloway
EXTT2=Supersax and L. A. Voices
EXTT3=D. Ellington
EXTT4=J. J. Johnson
EXTT5=J. Cain, R. Kral
EXTT6=W. Herman
EXTT7=D. Brubeck
EXTT8=G. Benson
EXTT9=B.Carter
EXTT10=K. Winding
EXTT11=A. Franklin
EXTT12=A. Jamal
EXTT13=The Hi-Lo's
EXTT14=D. Ellington
PLAYORDER=
